<?xml version="1.0" encoding="utf-8"?>
<!-- Generator: Adobe Illustrator 23.0.3, SVG Export Plug-In . SVG Version: 6.00 Build 0)  -->
<svg version="1.1" id="Layer_1" xmlns="http://www.w3.org/2000/svg" xmlns:xlink="http://www.w3.org/1999/xlink" x="0px" y="0px"
	 viewBox="0 0 120 200" style="enable-background:new 0 0 120 200;" xml:space="preserve">
<style type="text/css">
	.st0{fill:#FFFFFF;}
</style>
<g>
	<g>
		<path class="st0" d="M24.8,181.7c-0.8,0-1.6-0.3-2.1-0.9c-0.6-0.6-0.9-1.3-0.9-2.1c0-0.8,0.3-1.6,0.9-2.1l77.9-77.9L22.7,20.8
			c-1.2-1.2-1.2-3.1,0-4.2c0.6-0.6,1.3-0.9,2.1-0.9s1.6,0.3,2.1,0.9l80,80c0.6,0.6,0.9,1.3,0.9,2.1c0,0.8-0.3,1.6-0.9,2.1l-80,80
			C26.4,181.4,25.6,181.7,24.8,181.7z"/>
		<path class="st0" d="M24.8,16.7c0.5,0,1,0.2,1.4,0.6l80,80c0.8,0.8,0.8,2,0,2.8l-80,80c-0.4,0.4-0.9,0.6-1.4,0.6s-1-0.2-1.4-0.6
			c-0.8-0.8-0.8-2,0-2.8L102,98.7L23.4,20.1c-0.8-0.8-0.8-2,0-2.8C23.8,16.9,24.3,16.7,24.8,16.7 M24.8,14.7c-1.1,0-2.1,0.4-2.8,1.2
			c-1.6,1.6-1.6,4.1,0,5.7l77.2,77.2L22,175.9c-1.6,1.6-1.6,4.1,0,5.7c0.8,0.8,1.8,1.2,2.8,1.2s2.1-0.4,2.8-1.2l80-80
			c1.6-1.6,1.6-4.1,0-5.7l-80-80C26.9,15.1,25.9,14.7,24.8,14.7L24.8,14.7z"/>
	</g>
</g>
</svg>
